<svg width="800" height="520" viewBox="0 0 800 520" fill="none" xmlns="http://www.w3.org/2000/svg">
  <rect width="800" height="520" rx="32" fill="#EEF4FF"/>
  <circle cx="133" cy="94" r="48" fill="#DDE9FF"/>
  <circle cx="700" cy="120" r="34" fill="#E9D5FF"/>
  <rect x="76" y="86" width="648" height="348" rx="22" fill="white" stroke="#D6E4FF" stroke-width="4"/>
  <rect x="108" y="118" width="180" height="18" rx="9" fill="#2563EB" fill-opacity="0.12"/>
  <rect x="108" y="152" width="290" height="28" rx="14" fill="#2563EB"/>
  <rect x="108" y="196" width="250" height="16" rx="8" fill="#CBDCFD"/>
  <rect x="108" y="224" width="216" height="16" rx="8" fill="#D9E6FF"/>
  <rect x="108" y="274" width="132" height="42" rx="21" fill="#7C3AED"/>
  <rect x="258" y="274" width="132" height="42" rx="21" fill="#F8FBFF" stroke="#C8D9FF"/>
  <rect x="454" y="136" width="222" height="228" rx="20" fill="#F8FBFF" stroke="#DDE8FF"/>
  <rect x="482" y="168" width="166" height="92" rx="14" fill="url(#paint0_linear)"/>
  <rect x="482" y="280" width="118" height="14" rx="7" fill="#C9D8FB"/>
  <rect x="482" y="306" width="142" height="14" rx="7" fill="#DFE9FF"/>
  <rect x="626" y="285" width="22" height="35" rx="11" fill="#2563EB"/>
  <text x="110" y="362" fill="#173EA5" font-family="Segoe UI, Arial, sans-serif" font-size="26" font-weight="700">Launch your brand online</text>
  <defs>
    <linearGradient id="paint0_linear" x1="482" y1="168" x2="648" y2="260" gradientUnits="userSpaceOnUse">
      <stop stop-color="#2563EB"/>
      <stop offset="1" stop-color="#7C3AED"/>
    </linearGradient>
  </defs>
</svg>