<svg width="800" height="500" viewBox="0 0 800 500" fill="none" xmlns="http://www.w3.org/2000/svg">
  <rect width="800" height="500" rx="32" fill="#F5F3FF"/>
  <rect x="74" y="82" width="652" height="336" rx="24" fill="white" stroke="#E4DBFF" stroke-width="4"/>
  <rect x="106" y="118" width="178" height="20" rx="10" fill="#7C3AED" fill-opacity="0.15"/>
  <rect x="106" y="152" width="236" height="28" rx="14" fill="#7C3AED"/>
  <rect x="106" y="210" width="176" height="150" rx="20" fill="#EEF4FF"/>
  <rect x="312" y="210" width="176" height="150" rx="20" fill="#FDF2F8"/>
  <rect x="518" y="210" width="176" height="150" rx="20" fill="#EEFDF5"/>
  <circle cx="194" cy="266" r="30" fill="#2563EB" fill-opacity="0.18"/>
  <circle cx="400" cy="266" r="30" fill="#EC4899" fill-opacity="0.18"/>
  <circle cx="606" cy="266" r="30" fill="#10B981" fill-opacity="0.18"/>
  <rect x="144" y="316" width="100" height="10" rx="5" fill="#BDD0FF"/>
  <rect x="350" y="316" width="100" height="10" rx="5" fill="#F5C8DF"/>
  <rect x="556" y="316" width="100" height="10" rx="5" fill="#BEE9D8"/>
  <text x="108" y="400" fill="#5B21B6" font-family="Segoe UI, Arial, sans-serif" font-size="24" font-weight="700">Showcase your best work</text>
</svg>