<svg width="800" height="500" viewBox="0 0 800 500" fill="none" xmlns="http://www.w3.org/2000/svg">
  <rect width="800" height="500" rx="32" fill="#F8FBFF"/>
  <rect x="70" y="72" width="660" height="356" rx="28" fill="white" stroke="#DCE7FF" stroke-width="4"/>
  <rect x="106" y="110" width="220" height="24" rx="12" fill="#2563EB" fill-opacity="0.12"/>
  <rect x="106" y="148" width="260" height="26" rx="13" fill="#2563EB"/>
  <rect x="106" y="198" width="190" height="74" rx="18" fill="#EEF4FF"/>
  <rect x="320" y="198" width="190" height="74" rx="18" fill="#F3E8FF"/>
  <rect x="534" y="198" width="160" height="74" rx="18" fill="#EEFDF5"/>
  <path d="M138 236H264" stroke="#2563EB" stroke-width="10" stroke-linecap="round"/>
  <path d="M352 236H478" stroke="#7C3AED" stroke-width="10" stroke-linecap="round"/>
  <path d="M566 236H662" stroke="#10B981" stroke-width="10" stroke-linecap="round"/>
  <rect x="106" y="310" width="588" height="78" rx="18" fill="#F9FBFF" stroke="#DCE7FF"/>
  <circle cx="156" cy="349" r="22" fill="#2563EB" fill-opacity="0.18"/>
  <rect x="194" y="334" width="170" height="12" rx="6" fill="#C9D8FB"/>
  <rect x="194" y="356" width="128" height="12" rx="6" fill="#DFE9FF"/>
  <text x="108" y="424" fill="#173EA5" font-family="Segoe UI, Arial, sans-serif" font-size="24" font-weight="700">Design • Build • Launch</text>
</svg>