<svg width="220" height="220" viewBox="0 0 220 220" fill="none" xmlns="http://www.w3.org/2000/svg">
  <defs>
    <linearGradient id="g1" x1="34" y1="28" x2="184" y2="194" gradientUnits="userSpaceOnUse">
      <stop stop-color="#2563EB"/>
      <stop offset="1" stop-color="#7C3AED"/>
    </linearGradient>
  </defs>
  <rect x="20" y="20" width="180" height="180" rx="42" fill="url(#g1)"/>
  <circle cx="110" cy="110" r="66" fill="rgba(255,255,255,0.12)"/>
  <path d="M67 84H153V102H120V156H100V102H67V84Z" fill="white"/>
  <path d="M64 129H84C84 138 90 143 100 143C108 143 113 140 113 134C113 129 109 127 98 125L90 123C72 120 63 112 63 96C63 79 77 68 98 68C120 68 134 79 136 98H116C114 90 108 86 98 86C89 86 84 90 84 96C84 101 88 104 98 106L106 108C125 111 135 119 135 134C135 152 120 162 99 162C76 162 62 150 64 129Z" fill="white"/>
</svg>